<?xml version="1.0" encoding="utf-8"?>
<!-- Generator: Adobe Illustrator 21.0.0, SVG Export Plug-In . SVG Version: 6.00 Build 0)  -->
<svg version="1.1" xmlns="http://www.w3.org/2000/svg" xmlns:xlink="http://www.w3.org/1999/xlink" x="0px" y="0px"
	 viewBox="0 0 2590.9 2590.9" style="enable-background:new 0 0 2590.9 2590.9;" xml:space="preserve">
<style type="text/css">
	.st0{opacity:0.5;fill:#244C5A;}
	.st1{opacity:0.5;}
	.st2{opacity:0.5;fill:none;stroke:#244C5A;stroke-width:0.5;stroke-miterlimit:10;}
	.st3{fill:#244C5A;}
	.st4{fill:#3CB1C8;}
	.st5{opacity:0.5;fill:none;stroke:#244C5A;stroke-miterlimit:10;}
	.st6{fill:none;stroke:#244C5A;stroke-miterlimit:10;}
	.st7{opacity:0.5;fill:none;stroke:#244C5A;stroke-width:2;stroke-miterlimit:10;}
	.st8{fill:#00BCDA;}
	.st9{fill:#FFFFFF;}
	.st10{fill:#ABD2DC;}
	.st11{fill:#D3E4EC;}
	.st12{opacity:0.5;fill:none;stroke:#244C5A;stroke-linecap:round;stroke-miterlimit:10;}
	.st13{fill:#DCDBDB;}
	.st14{opacity:0.6;fill:#00BCDA;}
	.st15{opacity:0.6;}
	.st16{fill:#5884C3;stroke:#000000;stroke-miterlimit:10;}
	.st17{fill:#00BCDA;stroke:#000000;stroke-miterlimit:10;}
	.st18{fill:#244C5A;stroke:#000000;stroke-miterlimit:10;}
</style>
<g id="Logo_Simple_-_Cuadrdado">
	<g>
		<g>
			<g id="g4201_21_" transform="matrix(4.8726563,0,0,-4.8726563,447.26515,886.88328)">
				<path id="path4203_21_" inkscape:connector-curvature="0" class="st9" d="M-91.8-114.9v-85.7L68.6-154L-91.8-114.9z"/>
			</g>
			<g id="g4205_21_" transform="matrix(4.8726563,0,0,-4.8726563,588.97811,984.14685)">
				<path id="path4207_21_" inkscape:connector-curvature="0" class="st9" d="M53.2-214.4v74.3l-158-45.9L53.2-214.4z"/>
			</g>
			<g id="g4209_21_" transform="matrix(4.8726563,0,0,-4.8726563,592.14142,914.25833)">
				<path id="path4211_21_" inkscape:connector-curvature="0" class="st9" d="M56.5-142.9L125.2-97l-217.7-9.4L56.5-142.9z"/>
			</g>
			<g id="g4213_21_" transform="matrix(4.8726563,0,0,-4.8726563,456.77461,877.43617)">
				<path id="path4215_21_" inkscape:connector-curvature="0" class="st9" d="M-82.1-105.2l247.2,10.7V64.7L-82.1-105.2z"/>
			</g>
			<g id="g4217_21_" transform="matrix(4.8726563,0,0,-4.8726563,669.34036,739.14043)">
				<path id="path4219_21_" inkscape:connector-curvature="0" class="st9" d="M135.5,36.3v-159.2l247.2-10.7L135.5,36.3z"/>
			</g>
			<g id="g4221_21_" transform="matrix(4.8726563,0,0,-4.8726563,679.21627,876.94548)">
				<path id="path4223_21_" inkscape:connector-curvature="0" class="st9" d="M145.6-104.7l68.8-45.8l149,36.4L145.6-104.7z"/>
			</g>
			<g id="g4225_21_" transform="matrix(4.8726563,0,0,-4.8726563,749.54624,918.77477)">
				<path id="path4227_21_" inkscape:connector-curvature="0" class="st9" d="M217.5-147.5l160.3-46.6v85.7L217.5-147.5z"/>
			</g>
			<g id="g4229_21_" transform="matrix(4.8726563,0,0,-4.8726563,738.34646,984.14685)">
				<path id="path4231_21_" inkscape:connector-curvature="0" class="st9" d="M206.1-214.4l158,28.5l-158,45.9V-214.4z"/>
			</g>
		</g>
	</g>
</g>
<g id="_x31_._PORTADA">
</g>
<g id="_x32_._LOGO-1">
</g>
<g id="_x33_._LOGO-2">
</g>
<g id="Logo_Compuesto_-_Cuadrado">
</g>
<g id="Logo_Compuesto_-_Alargado">
</g>
<g id="Logo_Simple_Alargado">
</g>
<g id="Uso_incorrecto">
</g>
</svg>
