<?xml version="1.0" encoding="UTF-8" standalone="no"?>
<!-- Generator: Adobe Illustrator 21.0.0, SVG Export Plug-In . SVG Version: 6.00 Build 0)  -->

<svg
   version="1.1"
   x="0px"
   y="0px"
   viewBox="0 0 595.3 595.3"
   style="enable-background:new 0 0 595.3 595.3;"
   xml:space="preserve"
   id="svg134"
   sodipodi:docname="Logos_Principal BLANCO.svg"
   inkscape:version="1.1 (c68e22c387, 2021-05-23)"
   xmlns:inkscape="http://www.inkscape.org/namespaces/inkscape"
   xmlns:sodipodi="http://sodipodi.sourceforge.net/DTD/sodipodi-0.dtd"
   xmlns="http://www.w3.org/2000/svg"
   xmlns:svg="http://www.w3.org/2000/svg"><defs
   id="defs138" /><sodipodi:namedview
   id="namedview136"
   pagecolor="#ffffff"
   bordercolor="#666666"
   borderopacity="1.0"
   inkscape:pageshadow="2"
   inkscape:pageopacity="0.0"
   inkscape:pagecheckerboard="true"
   showgrid="false"
   inkscape:zoom="4.1478531"
   inkscape:cx="183.34786"
   inkscape:cy="370.31206"
   inkscape:window-width="3840"
   inkscape:window-height="2066"
   inkscape:window-x="2869"
   inkscape:window-y="-11"
   inkscape:window-maximized="1"
   inkscape:current-layer="svg134" />
<style
   type="text/css"
   id="style2">
	.st0{opacity:0.5;fill:#244C5A;}
	.st1{opacity:0.5;}
	.st2{opacity:0.5;fill:none;stroke:#244C5A;stroke-width:0.5;stroke-miterlimit:10;}
	.st3{fill:#244C5A;}
	.st4{fill:#3CB1C8;}
	.st5{opacity:0.5;fill:none;stroke:#244C5A;stroke-miterlimit:10;}
	.st6{fill:none;stroke:#244C5A;stroke-miterlimit:10;}
	.st7{opacity:0.5;fill:none;stroke:#244C5A;stroke-width:2;stroke-miterlimit:10;}
	.st8{fill:#00BCDA;}
	.st9{fill:#FFFFFF;}
	.st10{fill:#ABD2DC;}
	.st11{fill:#D3E4EC;}
	.st12{opacity:0.5;fill:none;stroke:#244C5A;stroke-linecap:round;stroke-miterlimit:10;}
	.st13{fill:#DCDBDB;}
	.st14{opacity:0.6;fill:#00BCDA;}
	.st15{opacity:0.6;}
	.st16{fill:#5884C3;stroke:#000000;stroke-miterlimit:10;}
	.st17{fill:#00BCDA;stroke:#000000;stroke-miterlimit:10;}
	.st18{fill:#244C5A;stroke:#000000;stroke-miterlimit:10;}
</style>
<g
   id="Logo_Simple_-_Cuadrdado">
</g>
<g
   id="_x31_._PORTADA">
</g>
<g
   id="_x32_._LOGO-1">
</g>
<g
   id="_x33_._LOGO-2">
</g>
<g
   id="Logo_Compuesto_-_Cuadrado">
	<g
   id="g128">
		<g
   id="g24">
			<g
   id="g4201_7_"
   transform="matrix(4.8726563,0,0,-4.8726563,447.26515,886.88328)">
				<path
   id="path4203_7_"
   inkscape:connector-curvature="0"
   class="st3"
   d="M-91.8,148.1v-12.9l24.2,7L-91.8,148.1z"
   style="fill:#ffffff;fill-opacity:1" />
			</g>
			<g
   id="g4205_7_"
   transform="matrix(4.8726563,0,0,-4.8726563,588.97811,984.14685)">
				<path
   id="path4207_7_"
   inkscape:connector-curvature="0"
   class="st8"
   d="M-94.6,150.1v11.2l-23.8-6.9L-94.6,150.1z"
   style="fill:#ffffff;fill-opacity:1" />
			</g>
			<g
   id="g4209_7_"
   transform="matrix(4.8726563,0,0,-4.8726563,592.14142,914.25833)">
				<path
   id="path4211_7_"
   inkscape:connector-curvature="0"
   class="st8"
   d="M-94.7,148.7l10.4,6.9l-32.8-1.4L-94.7,148.7z"
   style="fill:#ffffff;fill-opacity:1" />
			</g>
			<g
   id="g4213_7_"
   transform="matrix(4.8726563,0,0,-4.8726563,456.77461,877.43617)">
				<path
   id="path4215_7_"
   inkscape:connector-curvature="0"
   class="st3"
   d="M-92,147.9l37.3,1.6v24L-92,147.9z"
   style="fill:#ffffff;fill-opacity:1" />
			</g>
			<g
   id="g4217_7_"
   transform="matrix(4.8726563,0,0,-4.8726563,669.34036,739.14043)">
				<path
   id="path4219_7_"
   inkscape:connector-curvature="0"
   class="st8"
   d="M-96.3,145.2v-24l37.3-1.6L-96.3,145.2z"
   style="fill:#ffffff;fill-opacity:1" />
			</g>
			<g
   id="g4221_7_"
   transform="matrix(4.8726563,0,0,-4.8726563,679.21627,876.94548)">
				<path
   id="path4223_7_"
   inkscape:connector-curvature="0"
   class="st3"
   d="M-96.5,147.9l10.4-6.9l22.4,5.5L-96.5,147.9z"
   style="fill:#ffffff;fill-opacity:1" />
			</g>
			<g
   id="g4225_7_"
   transform="matrix(4.8726563,0,0,-4.8726563,749.54624,918.77477)">
				<path
   id="path4227_7_"
   inkscape:connector-curvature="0"
   class="st8"
   d="M-97.9,148.8l24.2-7v12.9L-97.9,148.8z"
   style="fill:#ffffff;fill-opacity:1" />
			</g>
			<g
   id="g4229_7_"
   transform="matrix(4.8726563,0,0,-4.8726563,738.34646,984.14685)">
				<path
   id="path4231_7_"
   inkscape:connector-curvature="0"
   class="st3"
   d="M-97.6,150.1l23.8,4.3l-23.8,6.9V150.1z"
   style="fill:#ffffff;fill-opacity:1" />
			</g>
		</g>
		<g
   id="g116">
			<path
   class="st8"
   d="M269.5,297.4c3.4,0,6.2,1,8.4,3.1c2.2,2,3.3,4.6,3.3,7.7c0,3.1-1.1,5.6-3.3,7.7c-2.2,2.1-5,3.1-8.5,3.1h-6.8     v-21.5H269.5z M265,316.8h4.6c2.7,0,4.9-0.8,6.6-2.5c1.7-1.7,2.6-3.7,2.6-6.2c0-2.5-0.9-4.5-2.6-6.2c-1.7-1.6-3.9-2.5-6.6-2.5     H265V316.8z"
   id="path26"
   style="fill:#ffffff;fill-opacity:1" />
			<path
   class="st8"
   d="M285.9,318.8v-21.5h14.9v2.1h-12.5v7.2h11v2h-11v8.2h12.8v2.1H285.9z"
   id="path28"
   style="fill:#ffffff;fill-opacity:1" />
			<path
   class="st8"
   d="M305.9,318.8v-21.5h2.4v19.4h11.9v2.1H305.9z"
   id="path30"
   style="fill:#ffffff;fill-opacity:1" />
			<path
   class="st8"
   d="M324,318.8v-21.5h14.9v2.1h-12.5v7.2h11v2h-11v8.2h12.8v2.1H324z"
   id="path32"
   style="fill:#ffffff;fill-opacity:1" />
			<path
   class="st8"
   d="M363.9,308.5c0,3-1,5.6-3.1,7.6c-2,2-4.5,3.1-7.4,3.1c-3.1,0-5.8-1.1-7.9-3.2c-2.1-2.1-3.2-4.7-3.2-7.8     c0-3.1,1.1-5.7,3.2-7.9c2.2-2.1,4.8-3.2,7.9-3.2c1,0,1.9,0.1,2.8,0.3c0.9,0.2,1.6,0.5,2.2,0.8c0.6,0.3,1.1,0.6,1.5,0.9     c0.4,0.3,0.8,0.6,1,0.8l0.3,0.3l-1.6,1.7c-0.1-0.1-0.1-0.2-0.3-0.3c-0.1-0.1-0.4-0.3-0.8-0.6c-0.4-0.3-0.8-0.6-1.3-0.8     c-0.4-0.2-1-0.4-1.7-0.6c-0.7-0.2-1.5-0.3-2.2-0.3c-2.5,0-4.6,0.8-6.2,2.5c-1.7,1.7-2.5,3.8-2.5,6.3s0.8,4.6,2.5,6.3     c1.7,1.7,3.8,2.5,6.2,2.5c2,0,3.8-0.6,5.3-1.9c1.5-1.3,2.4-3,2.7-5.1h-8v-1.8h10.5C363.8,308.2,363.9,308.3,363.9,308.5z"
   id="path34"
   style="fill:#ffffff;fill-opacity:1" />
			<path
   class="st8"
   d="M386.1,318.8h-2.6l-2.6-6.2h-10.5l-2.6,6.2h-2.5l9.2-21.5h2.4L386.1,318.8z M371.1,310.7h9.1l-4.5-10.6     L371.1,310.7z"
   id="path36"
   style="fill:#ffffff;fill-opacity:1" />
			<path
   class="st8"
   d="M390.7,300.3c2.2-2.1,4.8-3.2,7.9-3.2c1,0,1.9,0.1,2.8,0.3c0.9,0.2,1.6,0.5,2.2,0.8c0.6,0.3,1.1,0.6,1.6,1     c0.5,0.3,0.8,0.6,1,0.8l0.3,0.3l-1.7,1.5l-0.3-0.3c-0.1-0.1-0.4-0.3-0.8-0.6c-0.4-0.3-0.8-0.5-1.3-0.8c-0.5-0.2-1-0.4-1.7-0.6     c-0.7-0.2-1.4-0.3-2.2-0.3c-2.5,0-4.6,0.8-6.2,2.5c-1.7,1.7-2.5,3.8-2.5,6.3c0,2.5,0.8,4.6,2.5,6.3c1.7,1.7,3.8,2.5,6.2,2.5     c1.2,0,2.4-0.2,3.5-0.7c1.1-0.5,1.9-1,2.3-1.4l0.7-0.7l1.6,1.5c-0.1,0.1-0.2,0.2-0.3,0.4c-0.1,0.2-0.5,0.4-1,0.8     c-0.5,0.4-1.1,0.8-1.7,1.1c-0.6,0.3-1.4,0.6-2.3,0.9c-0.9,0.3-1.9,0.4-2.9,0.4c-3.1,0-5.8-1.1-7.9-3.2c-2.1-2.1-3.2-4.7-3.2-7.8     C387.5,305,388.6,302.4,390.7,300.3z"
   id="path38"
   style="fill:#ffffff;fill-opacity:1" />
			<path
   class="st8"
   d="M411.1,297.4h2.5v21.5h-2.5V297.4z"
   id="path40"
   style="fill:#ffffff;fill-opacity:1" />
			<path
   class="st8"
   d="M437.5,300.2c2.1,2.1,3.2,4.7,3.2,7.8c0,3.1-1.1,5.7-3.2,7.9c-2.2,2.1-4.8,3.2-7.9,3.2     c-3.1,0-5.8-1.1-7.9-3.2c-2.1-2.1-3.2-4.7-3.2-7.8c0-3.1,1.1-5.7,3.2-7.9c2.2-2.1,4.8-3.2,7.9-3.2S435.4,298.1,437.5,300.2z      M435.8,314.4c1.7-1.7,2.5-3.8,2.5-6.3c0-2.5-0.8-4.6-2.5-6.3c-1.7-1.7-3.8-2.5-6.2-2.5c-2.5,0-4.6,0.8-6.2,2.5     c-1.7,1.7-2.5,3.8-2.5,6.3c0,2.5,0.8,4.6,2.5,6.3c1.7,1.7,3.8,2.5,6.2,2.5C432.1,317,434.1,316.1,435.8,314.4z"
   id="path42"
   style="fill:#ffffff;fill-opacity:1" />
			<path
   class="st8"
   d="M447.8,300.8v18h-2.3v-21.5h2.5l13.2,17.8v-17.8h2.3v21.5h-2.3L447.8,300.8z"
   id="path44"
   style="fill:#ffffff;fill-opacity:1" />
			<path
   class="st8"
   d="M269.5,334.2c3.4,0,6.2,1,8.4,3.1c2.2,2,3.3,4.6,3.3,7.7s-1.1,5.6-3.3,7.7c-2.2,2.1-5,3.1-8.5,3.1h-6.8     v-21.5H269.5z M265,353.6h4.6c2.7,0,4.9-0.8,6.6-2.5c1.7-1.7,2.6-3.7,2.6-6.2c0-2.5-0.9-4.5-2.6-6.2c-1.7-1.6-3.9-2.5-6.6-2.5     H265V353.6z"
   id="path46"
   style="fill:#ffffff;fill-opacity:1" />
			<path
   class="st8"
   d="M285.9,355.7v-21.5h14.9v2.1h-12.5v7.2h11v2h-11v8.2h12.8v2.1H285.9z"
   id="path48"
   style="fill:#ffffff;fill-opacity:1" />
			<path
   class="st8"
   d="M313.5,355.7v-21.5h14.9v2.1h-12.5v7.2h11v2h-11v8.2h12.8v2.1H313.5z"
   id="path50"
   style="fill:#ffffff;fill-opacity:1" />
			<path
   class="st8"
   d="M346.1,350c0,1.7-0.6,3.1-1.9,4.3c-1.3,1.1-3,1.7-5.2,1.7c-0.9,0-1.8-0.1-2.7-0.3c-0.9-0.2-1.6-0.4-2.1-0.7     c-0.6-0.3-1.1-0.6-1.5-0.8c-0.4-0.3-0.7-0.5-1-0.7l-0.3-0.3l1.5-1.6l0.3,0.3c0.1,0.1,0.4,0.3,0.8,0.6c0.4,0.3,0.8,0.5,1.3,0.8     c0.4,0.2,1,0.4,1.8,0.6c0.7,0.2,1.5,0.3,2.2,0.3c1.3,0,2.4-0.4,3.2-1.1c0.8-0.7,1.2-1.6,1.2-2.6c0-1.1-0.4-2-1.3-2.8     c-0.8-0.8-2.3-1.5-4.4-2.2c-3.7-1.2-5.6-3.2-5.6-5.8c0-1.6,0.6-2.9,1.9-4c1.2-1.1,2.9-1.6,5-1.6c0.8,0,1.6,0.1,2.4,0.2     c0.8,0.2,1.4,0.4,1.9,0.6c0.5,0.2,0.9,0.5,1.3,0.7s0.7,0.4,0.8,0.6l0.2,0.2l-1.5,1.6c0-0.1-0.1-0.1-0.2-0.2     c-0.1-0.1-0.3-0.2-0.6-0.5c-0.3-0.2-0.7-0.4-1-0.6c-0.4-0.2-0.8-0.3-1.4-0.5c-0.6-0.1-1.2-0.2-1.8-0.2c-1.4,0-2.5,0.3-3.3,1     c-0.8,0.7-1.2,1.4-1.2,2.3c0,0.9,0.4,1.7,1.1,2.4c0.7,0.7,2,1.3,3.7,1.8C344,344.9,346.1,347,346.1,350z"
   id="path52"
   style="fill:#ffffff;fill-opacity:1" />
			<path
   class="st8"
   d="M358.1,336.3v19.4h-2.4v-19.4h-7.1v-2.1h16.6v2.1H358.1z"
   id="path54"
   style="fill:#ffffff;fill-opacity:1" />
			<path
   class="st8"
   d="M385.9,334.2V347c0,2.6-0.8,4.8-2.4,6.5c-1.6,1.7-3.7,2.5-6.2,2.5c-2.5,0-4.6-0.8-6.2-2.5     c-1.6-1.7-2.4-3.8-2.4-6.4v-12.9h2.4v12.9c0,2,0.6,3.6,1.7,4.9c1.2,1.2,2.7,1.9,4.5,1.9c1.8,0,3.3-0.6,4.4-1.9     c1.2-1.2,1.7-2.9,1.7-4.9v-12.9H385.9z"
   id="path56"
   style="fill:#ffffff;fill-opacity:1" />
			<path
   class="st8"
   d="M398.6,334.2c3.4,0,6.2,1,8.4,3.1c2.2,2,3.3,4.6,3.3,7.7s-1.1,5.6-3.3,7.7c-2.2,2.1-5,3.1-8.5,3.1h-6.8     v-21.5H398.6z M394.1,353.6h4.6c2.7,0,4.9-0.8,6.6-2.5c1.7-1.7,2.6-3.7,2.6-6.2c0-2.5-0.9-4.5-2.6-6.2c-1.7-1.6-3.9-2.5-6.6-2.5     h-4.6V353.6z"
   id="path58"
   style="fill:#ffffff;fill-opacity:1" />
			<path
   class="st8"
   d="M415.2,334.2h2.5v21.5h-2.5V334.2z"
   id="path60"
   style="fill:#ffffff;fill-opacity:1" />
			<path
   class="st8"
   d="M442.1,355.7h-2.6l-2.6-6.2h-10.5l-2.6,6.2h-2.5l9.2-21.5h2.4L442.1,355.7z M427.1,347.5h9.1l-4.5-10.6     L427.1,347.5z"
   id="path62"
   style="fill:#ffffff;fill-opacity:1" />
			<path
   class="st8"
   d="M447.8,337.7v18h-2.3v-21.5h2.5l13.2,17.8v-17.8h2.3v21.5h-2.3L447.8,337.7z"
   id="path64"
   style="fill:#ffffff;fill-opacity:1" />
			<path
   class="st8"
   d="M476.9,336.3v19.4h-2.4v-19.4h-7.1v-2.1H484v2.1H476.9z"
   id="path66"
   style="fill:#ffffff;fill-opacity:1" />
			<path
   class="st8"
   d="M487.8,355.7v-21.5h14.9v2.1h-12.5v7.2h11v2h-11v8.2H503v2.1H487.8z"
   id="path68"
   style="fill:#ffffff;fill-opacity:1" />
			<path
   class="st8"
   d="M520.5,350c0,1.7-0.6,3.1-1.9,4.3c-1.3,1.1-3,1.7-5.2,1.7c-0.9,0-1.8-0.1-2.7-0.3c-0.9-0.2-1.6-0.4-2.1-0.7     c-0.6-0.3-1.1-0.6-1.5-0.8c-0.4-0.3-0.7-0.5-1-0.7l-0.3-0.3l1.5-1.6l0.3,0.3c0.1,0.1,0.4,0.3,0.8,0.6c0.4,0.3,0.8,0.5,1.3,0.8     c0.4,0.2,1,0.4,1.8,0.6c0.7,0.2,1.5,0.3,2.2,0.3c1.3,0,2.4-0.4,3.2-1.1c0.8-0.7,1.2-1.6,1.2-2.6c0-1.1-0.4-2-1.3-2.8     s-2.3-1.5-4.4-2.2c-3.7-1.2-5.6-3.2-5.6-5.8c0-1.6,0.6-2.9,1.9-4c1.2-1.1,2.9-1.6,5-1.6c0.8,0,1.6,0.1,2.4,0.2     c0.8,0.2,1.4,0.4,1.9,0.6c0.5,0.2,0.9,0.5,1.3,0.7c0.4,0.2,0.7,0.4,0.8,0.6l0.2,0.2l-1.5,1.6c0-0.1-0.1-0.1-0.2-0.2     c-0.1-0.1-0.3-0.2-0.6-0.5c-0.3-0.2-0.7-0.4-1-0.6c-0.4-0.2-0.8-0.3-1.4-0.5c-0.6-0.1-1.2-0.2-1.8-0.2c-1.4,0-2.5,0.3-3.3,1     c-0.8,0.7-1.2,1.4-1.2,2.3c0,0.9,0.4,1.7,1.1,2.4c0.7,0.7,2,1.3,3.7,1.8C518.4,344.9,520.5,347,520.5,350z"
   id="path70"
   style="fill:#ffffff;fill-opacity:1" />
			<path
   class="st8"
   d="M269.5,371c3.4,0,6.2,1,8.4,3.1c2.2,2,3.3,4.6,3.3,7.7s-1.1,5.6-3.3,7.7c-2.2,2.1-5,3.1-8.5,3.1h-6.8V371     H269.5z M265,390.5h4.6c2.7,0,4.9-0.8,6.6-2.5c1.7-1.7,2.6-3.7,2.6-6.2c0-2.5-0.9-4.5-2.6-6.2c-1.7-1.6-3.9-2.5-6.6-2.5H265     V390.5z"
   id="path72"
   style="fill:#ffffff;fill-opacity:1" />
			<path
   class="st8"
   d="M285.9,392.5V371h14.9v2.1h-12.5v7.2h11v2h-11v8.2h12.8v2.1H285.9z"
   id="path74"
   style="fill:#ffffff;fill-opacity:1" />
			<path
   class="st8"
   d="M313.5,392.5V371h2.4v19.4h11.9v2.1H313.5z"
   id="path76"
   style="fill:#ffffff;fill-opacity:1" />
			<path
   class="st8"
   d="M350.3,392.5h-2.6l-2.6-6.2h-10.5l-2.6,6.2h-2.5l9.2-21.5h2.4L350.3,392.5z M335.3,384.4h9.1l-4.5-10.6     L335.3,384.4z"
   id="path78"
   style="fill:#ffffff;fill-opacity:1" />
			<path
   class="st8"
   d="M363.7,383.4v9.1h-2.4V371h14.6v2.1h-12.2v8.2h10.6v2.1H363.7z"
   id="path80"
   style="fill:#ffffff;fill-opacity:1" />
			<path
   class="st8"
   d="M396.6,392.5h-2.6l-2.6-6.2h-10.5l-2.6,6.2h-2.5l9.2-21.5h2.4L396.6,392.5z M381.5,384.4h9.1l-4.5-10.6     L381.5,384.4z"
   id="path82"
   style="fill:#ffffff;fill-opacity:1" />
			<path
   class="st8"
   d="M401.2,374c2.2-2.1,4.8-3.2,7.9-3.2c1,0,1.9,0.1,2.8,0.3c0.9,0.2,1.6,0.5,2.2,0.8s1.1,0.6,1.6,1     c0.4,0.3,0.8,0.6,1,0.8l0.3,0.3l-1.7,1.5l-0.3-0.3c-0.1-0.1-0.4-0.3-0.8-0.6c-0.4-0.3-0.8-0.5-1.3-0.8c-0.5-0.2-1-0.4-1.7-0.6     c-0.7-0.2-1.4-0.3-2.2-0.3c-2.5,0-4.6,0.8-6.2,2.5c-1.7,1.7-2.5,3.8-2.5,6.3c0,2.5,0.8,4.6,2.5,6.3c1.7,1.7,3.8,2.5,6.2,2.5     c1.2,0,2.4-0.2,3.5-0.7c1.1-0.5,1.9-1,2.3-1.4l0.7-0.7l1.6,1.5c-0.1,0.1-0.2,0.2-0.3,0.4c-0.1,0.2-0.5,0.4-1,0.8     c-0.5,0.4-1.1,0.8-1.7,1.1c-0.6,0.3-1.4,0.6-2.3,0.9c-0.9,0.3-1.9,0.4-2.9,0.4c-3.1,0-5.8-1.1-7.9-3.2c-2.1-2.1-3.2-4.7-3.2-7.8     C397.9,378.7,399,376.1,401.2,374z"
   id="path84"
   style="fill:#ffffff;fill-opacity:1" />
			<path
   class="st8"
   d="M438.3,371v12.8c0,2.6-0.8,4.8-2.4,6.5c-1.6,1.7-3.7,2.5-6.2,2.5c-2.5,0-4.6-0.8-6.2-2.5     c-1.6-1.7-2.4-3.8-2.4-6.4V371h2.4v12.9c0,2,0.6,3.6,1.7,4.9c1.2,1.2,2.7,1.9,4.5,1.9c1.8,0,3.3-0.6,4.4-1.9     c1.2-1.2,1.7-2.9,1.7-4.9V371H438.3z"
   id="path86"
   style="fill:#ffffff;fill-opacity:1" />
			<path
   class="st8"
   d="M444.1,392.5V371h2.4v19.4h11.9v2.1H444.1z"
   id="path88"
   style="fill:#ffffff;fill-opacity:1" />
			<path
   class="st8"
   d="M466.9,373.1v19.4h-2.4v-19.4h-7.1V371H474v2.1H466.9z"
   id="path90"
   style="fill:#ffffff;fill-opacity:1" />
			<path
   class="st8"
   d="M493.2,392.5h-2.6l-2.6-6.2h-10.5l-2.6,6.2h-2.5l9.2-21.5h2.4L493.2,392.5z M478.2,384.4h9.1l-4.5-10.6     L478.2,384.4z"
   id="path92"
   style="fill:#ffffff;fill-opacity:1" />
			<path
   class="st8"
   d="M503.5,371c3.4,0,6.2,1,8.4,3.1c2.2,2,3.3,4.6,3.3,7.7s-1.1,5.6-3.3,7.7c-2.2,2.1-5,3.1-8.5,3.1h-6.8V371     H503.5z M499,390.5h4.6c2.7,0,4.9-0.8,6.6-2.5c1.7-1.7,2.6-3.7,2.6-6.2c0-2.5-0.9-4.5-2.6-6.2c-1.7-1.6-3.9-2.5-6.6-2.5H499     V390.5z"
   id="path94"
   style="fill:#ffffff;fill-opacity:1" />
			<path
   class="st8"
   d="M269.5,407.9c3.4,0,6.2,1,8.4,3.1s3.3,4.6,3.3,7.7s-1.1,5.6-3.3,7.7c-2.2,2.1-5,3.1-8.5,3.1h-6.8v-21.5     H269.5z M265,427.3h4.6c2.7,0,4.9-0.8,6.6-2.5c1.7-1.7,2.6-3.7,2.6-6.2c0-2.5-0.9-4.5-2.6-6.2c-1.7-1.6-3.9-2.5-6.6-2.5H265     V427.3z"
   id="path96"
   style="fill:#ffffff;fill-opacity:1" />
			<path
   class="st8"
   d="M285.9,429.4v-21.5h14.9v2.1h-12.5v7.2h11v2h-11v8.2h12.8v2.1H285.9z"
   id="path98"
   style="fill:#ffffff;fill-opacity:1" />
			<path
   class="st8"
   d="M315.3,410.8c2.2-2.1,4.8-3.2,7.9-3.2c1,0,1.9,0.1,2.8,0.3c0.9,0.2,1.6,0.5,2.2,0.8s1.1,0.6,1.6,1     c0.4,0.3,0.8,0.6,1,0.8l0.3,0.3l-1.7,1.5l-0.3-0.3c-0.1-0.1-0.4-0.3-0.8-0.6c-0.4-0.3-0.8-0.5-1.3-0.8c-0.4-0.2-1-0.4-1.7-0.6     s-1.4-0.3-2.2-0.3c-2.5,0-4.6,0.8-6.2,2.5c-1.7,1.7-2.5,3.8-2.5,6.3c0,2.5,0.8,4.6,2.5,6.3c1.7,1.7,3.8,2.5,6.2,2.5     c1.2,0,2.4-0.2,3.5-0.7c1.1-0.5,1.9-1,2.3-1.4l0.7-0.7l1.6,1.5c-0.1,0.1-0.2,0.2-0.3,0.4c-0.1,0.2-0.5,0.4-1,0.8     c-0.5,0.4-1.1,0.8-1.7,1.1c-0.6,0.3-1.4,0.6-2.3,0.9c-0.9,0.3-1.9,0.4-2.9,0.4c-3.1,0-5.8-1.1-7.9-3.2s-3.2-4.7-3.2-7.8     C312.1,415.6,313.2,412.9,315.3,410.8z"
   id="path100"
   style="fill:#ffffff;fill-opacity:1" />
			<path
   class="st8"
   d="M335.7,407.9h2.5v21.5h-2.5V407.9z"
   id="path102"
   style="fill:#ffffff;fill-opacity:1" />
			<path
   class="st8"
   d="M344.4,429.4v-21.5h14.9v2.1h-12.5v7.2h11v2h-11v8.2h12.8v2.1H344.4z"
   id="path104"
   style="fill:#ffffff;fill-opacity:1" />
			<path
   class="st8"
   d="M366.7,411.3v18h-2.3v-21.5h2.5l13.2,17.8v-17.8h2.3v21.5h-2.3L366.7,411.3z"
   id="path106"
   style="fill:#ffffff;fill-opacity:1" />
			<path
   class="st8"
   d="M390.5,410.8c2.2-2.1,4.8-3.2,7.9-3.2c1,0,1.9,0.1,2.8,0.3c0.9,0.2,1.6,0.5,2.2,0.8c0.6,0.3,1.1,0.6,1.6,1     c0.4,0.3,0.8,0.6,1,0.8l0.3,0.3l-1.7,1.5l-0.3-0.3c-0.1-0.1-0.4-0.3-0.8-0.6c-0.4-0.3-0.8-0.5-1.3-0.8c-0.5-0.2-1-0.4-1.7-0.6     c-0.7-0.2-1.4-0.3-2.2-0.3c-2.5,0-4.6,0.8-6.2,2.5c-1.7,1.7-2.5,3.8-2.5,6.3c0,2.5,0.8,4.6,2.5,6.3c1.7,1.7,3.8,2.5,6.2,2.5     c1.2,0,2.4-0.2,3.5-0.7c1.1-0.5,1.9-1,2.3-1.4l0.7-0.7l1.6,1.5c-0.1,0.1-0.2,0.2-0.3,0.4c-0.1,0.2-0.5,0.4-1,0.8     c-0.5,0.4-1.1,0.8-1.7,1.1c-0.6,0.3-1.4,0.6-2.3,0.9c-0.9,0.3-1.9,0.4-2.9,0.4c-3.1,0-5.8-1.1-7.9-3.2c-2.1-2.1-3.2-4.7-3.2-7.8     C387.2,415.6,388.3,412.9,390.5,410.8z"
   id="path108"
   style="fill:#ffffff;fill-opacity:1" />
			<path
   class="st8"
   d="M410.8,407.9h2.5v21.5h-2.5V407.9z"
   id="path110"
   style="fill:#ffffff;fill-opacity:1" />
			<path
   class="st8"
   d="M437.7,429.4h-2.6l-2.6-6.2h-10.5l-2.6,6.2h-2.5l9.2-21.5h2.4L437.7,429.4z M422.6,421.2h9.1l-4.5-10.6     L422.6,421.2z"
   id="path112"
   style="fill:#ffffff;fill-opacity:1" />
			<path
   class="st8"
   d="M453.8,423.7c0,1.7-0.6,3.1-1.9,4.3c-1.3,1.1-3,1.7-5.2,1.7c-0.9,0-1.8-0.1-2.7-0.3     c-0.9-0.2-1.6-0.4-2.1-0.7c-0.6-0.3-1.1-0.6-1.5-0.8c-0.4-0.3-0.7-0.5-1-0.7l-0.3-0.3l1.5-1.6l0.3,0.3c0.1,0.1,0.4,0.3,0.8,0.6     c0.4,0.3,0.8,0.5,1.3,0.8c0.4,0.2,1,0.4,1.8,0.6c0.7,0.2,1.5,0.3,2.2,0.3c1.3,0,2.4-0.4,3.2-1.1c0.8-0.7,1.2-1.6,1.2-2.6     c0-1.1-0.4-2-1.3-2.8s-2.3-1.5-4.4-2.2c-3.7-1.2-5.6-3.2-5.6-5.8c0-1.6,0.6-2.9,1.9-4c1.2-1.1,2.9-1.6,5-1.6     c0.8,0,1.6,0.1,2.4,0.2c0.8,0.2,1.4,0.4,1.9,0.6c0.5,0.2,0.9,0.5,1.3,0.7c0.4,0.2,0.7,0.4,0.8,0.6l0.2,0.2l-1.5,1.6     c0-0.1-0.1-0.1-0.2-0.2c-0.1-0.1-0.3-0.2-0.6-0.5c-0.3-0.2-0.7-0.4-1-0.6c-0.4-0.2-0.8-0.3-1.4-0.5c-0.6-0.1-1.2-0.2-1.8-0.2     c-1.4,0-2.5,0.3-3.3,1c-0.8,0.7-1.2,1.4-1.2,2.3c0,0.9,0.4,1.7,1.1,2.4c0.7,0.7,2,1.3,3.7,1.8     C451.6,418.5,453.8,420.7,453.8,423.7z"
   id="path114"
   style="fill:#ffffff;fill-opacity:1" />
		</g>
		<g
   id="g126">
			<path
   class="st3"
   d="M294.5,473.8c14.2,0,25.8,4.2,34.9,12.5c9.1,8.3,13.7,18.8,13.7,31.5c0,12.6-4.7,23.2-14,31.7     c-9.4,8.5-21.1,12.8-35.3,12.8h-31v-88.5H294.5z M282.3,545.5h12.6c8.4,0,15.4-2.6,20.9-7.8c5.5-5.2,8.2-11.8,8.2-19.7     s-2.7-14.5-8.2-19.7c-5.5-5.2-12.4-7.8-20.9-7.8h-12.6V545.5z"
   id="path118"
   style="fill:#ffffff;fill-opacity:1" />
			<path
   class="st3"
   d="M359,562.2v-88.5h65.1v16.8h-45.7v18.3h39.4v15.7h-39.4v21h47v16.7H359z"
   id="path120"
   style="fill:#ffffff;fill-opacity:1" />
			<path
   class="st3"
   d="M460.4,529.1v33.1h-19.3v-88.5h63.8v16.8h-44.5v22.2h38.2v16.3H460.4z"
   id="path122"
   style="fill:#ffffff;fill-opacity:1" />
			<path
   class="st3"
   d="M527.3,485.8c9-8.9,20.1-13.3,33.2-13.3c4.4,0,8.5,0.5,12.4,1.5c3.9,1,7.1,2.1,9.7,3.5     c2.5,1.4,4.7,2.8,6.6,4.2c1.9,1.4,3.2,2.7,4,3.7l1.3,1.4l-14.2,12.4c-0.2-0.3-0.4-0.6-0.8-0.9c-0.3-0.4-1.1-1.1-2.4-2.1     c-1.3-1-2.6-1.9-4-2.7c-1.4-0.8-3.3-1.5-5.6-2.1c-2.4-0.6-4.8-0.9-7.3-0.9c-7.8,0-14.3,2.7-19.5,8c-5.1,5.3-7.7,11.9-7.7,19.7     c0,7.9,2.6,14.5,7.7,19.8c5.1,5.3,11.6,8,19.5,8c2.7,0,5.3-0.4,7.7-1.1c2.4-0.7,4.5-1.6,6.1-2.5c1.6-1,3-2,4.2-3     c1.2-1,2.1-1.9,2.7-2.5l0.8-1.1l13.6,12.1c-0.3,0.4-0.8,1-1.4,1.7s-1.9,2-4,3.8s-4.4,3.4-6.9,4.8c-2.5,1.4-5.9,2.7-10,3.8     c-4.1,1.1-8.5,1.7-13,1.7c-13.1,0-24.1-4.3-32.9-13c-8.8-8.6-13.2-19.4-13.2-32.2C513.8,505.6,518.3,494.7,527.3,485.8z"
   id="path124"
   style="fill:#ffffff;fill-opacity:1" />
		</g>
	</g>
</g>
<g
   id="Logo_Compuesto_-_Alargado">
</g>
<g
   id="Logo_Simple_Alargado">
</g>
<g
   id="Uso_incorrecto">
</g>
</svg>
